[h264 @ 0x555621411280] Reinit context to 720x1280, pix_fmt: yuv420p
Input #0, mov,mp4,m4a,3gp,3g2,mj2, from '/var/www/html/project/media/video/original/lv_0_20230611205159.mp4':
  Metadata:
    major_brand     : isom
    minor_version   : 512
    compatible_brands: isomiso2avc1mp41
    Hw              : 1
                    : 
    LvMetaInfo      : {"data":{"appVersion":"7.0.0","capabilityName":"","ccTtVid":"","draftInfo":{"adjust":0,"aiMatting":0,"audioToText":0,"chroma":0,"coverTemplateId":"","curveSpeed":0,"faceEffectId":"","filterId":"","gameplayAlgorithm":"","graphs":0,"keyframe":0,"mask":0,"mi
    bitRate         : 4000000
                    : 
    copyright       : e28acff622878484e7c8d2d7c9af75a6
    maxrate         : 30000000
                    : 
    te_is_reencode  : 1
                    : 
    encoder         : bytevehwavc
  Duration: 00:00:25.19, start: 0.000000, bitrate: 3554 kb/s
    Stream #0:0(und): Video: h264 (High), 1 reference frame (avc1 / 0x31637661), yuv420p(tv, bt709, left), 718x1280 (720x1280), 3427 kb/s, 30 fps, 30 tbr, 1000k tbn, 2000k tbc (default)
    Metadata:
      handler_name    : VideoHandler
    Stream #0:1(und): Audio: aac (LC) (mp4a / 0x6134706D), 44100 Hz, stereo, fltp, 128 kb/s (default)
    Metadata:
      handler_name    : SoundHandler
Input #1, png_pipe, from '/var/www/html/project/static/images/templates/logo_vertical.png':
  Duration: N/A, bitrate: N/A
    Stream #1:0: Video: png, 1 reference frame, rgba(pc), 1920x1080 [SAR 2835:2835 DAR 16:9], 25 tbr, 25 tbn, 25 tbc
[h264 @ 0x555621484000] Reinit context to 1280x720, pix_fmt: yuv420p
Input #2, mov,mp4,m4a,3gp,3g2,mj2, from '/var/www/html/project/static/images/templates/Codino.mp4':
  Metadata:
    major_brand     : mp42
    minor_version   : 1
    compatible_brands: isommp41mp42
    creation_time   : 2021-07-11T07:02:58.000000Z
  Duration: 00:00:02.00, start: 0.000000, bitrate: 1007 kb/s
    Stream #2:0(ita): Audio: aac (LC) (mp4a / 0x6134706D), 44100 Hz, stereo, fltp, 102 kb/s (default)
    Metadata:
      creation_time   : 2021-07-11T07:02:58.000000Z
      handler_name    : Core Media Audio
    Stream #2:1(und): Video: h264 (High), 1 reference frame (avc1 / 0x31637661), yuv420p(tv, bt709, progressive, left), 1280x720 [SAR 1:1 DAR 16:9], 813 kb/s, 25 fps, 25 tbr, 25k tbn, 50k tbc (default)
    Metadata:
      creation_time   : 2021-07-11T07:02:58.000000Z
      handler_name    : Core Media Video
[Parsed_scale_1 @ 0x55562143bb80] w:1280 h:720 flags:'bilinear' interl:0
[Parsed_scale_4 @ 0x555621460580] w:-1 h:720 flags:'bilinear' interl:0
[Parsed_scale_7 @ 0x55562143b640] w:1280 h:720 flags:'bilinear' interl:0
[Parsed_scale_9 @ 0x5556214c2900] w:1280 h:720 flags:'bilinear' interl:0
Stream mapping:
  Stream #0:0 (h264) -> split
  Stream #0:1 (aac) -> concat:in0:a0
  Stream #1:0 (png) -> scale
  Stream #2:0 (aac) -> concat:in1:a0
  Stream #2:1 (h264) -> scale
  concat:out:v0 -> Stream #0:0 (libx264)
  concat:out:a0 -> Stream #0:1 (aac)
Press [q] to stop, [?] for help
[h264 @ 0x5556214e39c0] Reinit context to 720x1280, pix_fmt: yuv420p
[h264 @ 0x5556218d2d40] Reinit context to 1280x720, pix_fmt: yuv420p
[Parsed_scale_1 @ 0x555622773cc0] w:1280 h:720 flags:'bilinear' interl:0
[Parsed_scale_4 @ 0x555622778d40] w:-1 h:720 flags:'bilinear' interl:0
[Parsed_scale_7 @ 0x55562277c500] w:1280 h:720 flags:'bilinear' interl:0
[Parsed_scale_9 @ 0x55562277dd40] w:1280 h:720 flags:'bilinear' interl:0
[graph 0 input from stream 0:0 @ 0x555622782440] w:718 h:1280 pixfmt:yuv420p tb:1/1000000 fr:30/1 sar:0/1 sws_param:flags=2
[graph 0 input from stream 1:0 @ 0x555622783500] w:1920 h:1080 pixfmt:rgba tb:1/25 fr:25/1 sar:2835/2835 sws_param:flags=2
[graph 0 input from stream 2:1 @ 0x555622783dc0] w:1280 h:720 pixfmt:yuv420p tb:1/25000 fr:25/1 sar:1/1 sws_param:flags=2
[graph_0_in_0_1 @ 0x555622783940] tb:1/44100 samplefmt:fltp samplerate:44100 chlayout:0x3
[graph_0_in_2_0 @ 0x555622778c40] tb:1/44100 samplefmt:fltp samplerate:44100 chlayout:0x3
[Parsed_scale_1 @ 0x555622773cc0] w:718 h:1280 fmt:yuv420p sar:0/1 -> w:1280 h:720 fmt:yuv420p sar:0/1 flags:0x2
[Parsed_boxblur_2 @ 0x555622777d00] luma_radius:36 luma_power:1 chroma_radius:18 chroma_power:1 alpha_radius:36 alpha_power:1 w:1280 chroma_w:640 h:720 chroma_h:360
[Parsed_setsar_3 @ 0x555622777b40] w:1280 h:720 sar:0/1 dar:16/9 -> sar:1/1 dar:16/9
[Parsed_scale_4 @ 0x555622778d40] w:718 h:1280 fmt:yuv420p sar:0/1 -> w:404 h:720 fmt:yuva420p sar:0/1 flags:0x2
[Parsed_setsar_5 @ 0x555622777400] w:404 h:720 sar:0/1 dar:101/180 -> sar:1/1 dar:101/180
[Parsed_overlay_6 @ 0x55562277aec0] main w:1280 h:720 fmt:yuv420p overlay w:404 h:720 fmt:yuva420p
[Parsed_overlay_6 @ 0x55562277aec0] [framesync @ 0x55562277b3e8] Selected 1/1000000 time base
[Parsed_overlay_6 @ 0x55562277aec0] [framesync @ 0x55562277b3e8] Sync level 2
[Parsed_scale_7 @ 0x55562277c500] w:1920 h:1080 fmt:rgba sar:2835/2835 -> w:1280 h:720 fmt:yuva420p sar:1/1 flags:0x2
[Parsed_setsar_8 @ 0x55562277d000] w:1280 h:720 sar:1/1 dar:16/9 -> sar:1/1 dar:16/9
[Parsed_overlay_11 @ 0x55562277f440] main w:1280 h:720 fmt:yuv420p overlay w:1280 h:720 fmt:yuva420p
[Parsed_overlay_11 @ 0x55562277f440] [framesync @ 0x55562277f5a8] Selected 1/1000000 time base
[Parsed_overlay_11 @ 0x55562277f440] [framesync @ 0x55562277f5a8] Sync level 2
[Parsed_scale_9 @ 0x55562277dd40] w:1280 h:720 fmt:yuv420p sar:1/1 -> w:1280 h:720 fmt:yuv420p sar:1/1 flags:0x2
[Parsed_setsar_10 @ 0x55562277e800] w:1280 h:720 sar:1/1 dar:16/9 -> sar:1/1 dar:16/9
[libx264 @ 0x55562145d740] using SAR=1/1
[libx264 @ 0x55562145d740] using cpu capabilities: MMX2 SSE2Fast SSSE3 SSE4.2 AVX FMA3 BMI2 AVX2
[libx264 @ 0x55562145d740] profile High, level 3.1
[libx264 @ 0x55562145d740] 264 - core 155 r2917 0a84d98 - H.264/MPEG-4 AVC codec - Copyleft 2003-2018 - http://www.videolan.org/x264.html - options: cabac=1 ref=1 deblock=1:0:0 analyse=0x3:0x113 me=hex subme=2 psy=1 psy_rd=1.00:0.00 mixed_ref=0 me_range=16 chroma_me=1 trellis=0 8x8dct=1 cqm=0 deadzone=21,11 fast_pskip=1 chroma_qp_offset=0 threads=22 lookahead_threads=5 sliced_threads=0 nr=0 decimate=1 interlaced=0 bluray_compat=0 constrained_intra=0 bframes=3 b_pyramid=2 b_adapt=1 b_bias=0 direct=1 weightb=1 open_gop=0 weightp=1 keyint=250 keyint_min=25 scenecut=40 intra_refresh=0 rc_lookahead=10 rc=crf mbtree=1 crf=18.0 qcomp=0.60 qpmin=0 qpmax=69 qpstep=4 ip_ratio=1.40 aq=1:1.00
Output #0, mp4, to '/var/www/html/project/media/video/watermarks/lv_0_20230611205159.mp4':
  Metadata:
    major_brand     : isom
    minor_version   : 512
    compatible_brands: isomiso2avc1mp41
    Hw              : 1
                    : 
    LvMetaInfo      : {"data":{"appVersion":"7.0.0","capabilityName":"","ccTtVid":"","draftInfo":{"adjust":0,"aiMatting":0,"audioToText":0,"chroma":0,"coverTemplateId":"","curveSpeed":0,"faceEffectId":"","filterId":"","gameplayAlgorithm":"","graphs":0,"keyframe":0,"mask":0,"mi
    bitRate         : 4000000
                    : 
    copyright       : e28acff622878484e7c8d2d7c9af75a6
    maxrate         : 30000000
                    : 
    te_is_reencode  : 1
                    : 
    encoder         : Lavf58.29.100
    Stream #0:0: Video: h264 (libx264), 1 reference frame (avc1 / 0x31637661), yuv420p(progressive), 1280x720 [SAR 1:1 DAR 16:9], q=-1--1, 30 fps, 15360 tbn, 30 tbc (default)
    Metadata:
      encoder         : Lavc58.54.100 libx264
    Side data:
      cpb: bitrate max/min/avg: 0/0/0 buffer size: 0 vbv_delay: -1
    Stream #0:1: Audio: aac (LC) (mp4a / 0x6134706D), 44100 Hz, stereo, fltp, delay 1024, 128 kb/s (default)
    Metadata:
      encoder         : Lavc58.54.100 aac
[Parsed_overlay_6 @ 0x55562277aec0] [framesync @ 0x55562277b3e8] Sync level 1
[Parsed_overlay_6 @ 0x55562277aec0] [framesync @ 0x55562277b3e8] Sync level 0
[Parsed_overlay_11 @ 0x55562277f440] [framesync @ 0x55562277f5a8] Sync level 0
[Parsed_concat_12 @ 0x5556227804c0] EOF on in0:v0, 1 streams left in segment.
[Parsed_concat_12 @ 0x5556227804c0] EOF on in0:a0, 0 streams left in segment.
[Parsed_concat_12 @ 0x5556227804c0] Segment finished at pts=25147211
[Parsed_concat_12 @ 0x5556227804c0] EOF on in1:a0, 1 streams left in segment.
[Parsed_concat_12 @ 0x5556227804c0] EOF on in1:v0, 0 streams left in segment.
[Parsed_concat_12 @ 0x5556227804c0] Segment finished at pts=27165896
No more output streams to write to, finishing.
frame=  804 fps= 33 q=-1.0 Lsize=   12095kB time=00:00:27.16 bitrate=3647.1kbits/s speed=1.12x    
[AVIOContext @ 0x55562140f500] Statistics: 0 seeks, 48 writeouts
video:11672kB audio:393kB subtitle:0kB other streams:0kB global headers:0kB muxing overhead: 0.248337%
Input file #0 (/var/www/html/project/media/video/original/lv_0_20230611205159.mp4):
  Input stream #0:0 (video): 754 packets read (10769487 bytes); 754 frames decoded; 
  Input stream #0:1 (audio): 1085 packets read (403099 bytes); 1083 frames decoded (1108992 samples); 
  Total: 1839 packets (11172586 bytes) demuxed
Input file #1 (/var/www/html/project/static/images/templates/logo_vertical.png):
  Input stream #1:0 (video): 1 packets read (93903 bytes); 1 frames decoded; 
  Total: 1 packets (93903 bytes) demuxed
Input file #2 (/var/www/html/project/static/images/templates/Codino.mp4):
  Input stream #2:0 (audio): 89 packets read (26579 bytes); 87 frames decoded (89024 samples); 
  Input stream #2:1 (video): 50 packets read (203365 bytes); 50 frames decoded; 
  Total: 139 packets (229944 bytes) demuxed
Output file #0 (/var/www/html/project/media/video/watermarks/lv_0_20230611205159.mp4):
  Output stream #0:0 (video): 804 frames encoded; 804 packets muxed (11951854 bytes); 
  Output stream #0:1 (audio): 1170 frames encoded (1198016 samples); 1171 packets muxed (402706 bytes); 
  Total: 1975 packets (12354560 bytes) muxed
[AVIOContext @ 0x55562144f700] Statistics: 2 seeks, 51 writeouts
[libx264 @ 0x55562145d740] frame I:5     Avg QP:14.06  size: 85662
[libx264 @ 0x55562145d740] frame P:218   Avg QP:17.69  size: 32889
[libx264 @ 0x55562145d740] frame B:581   Avg QP:21.18  size:  7492
[libx264 @ 0x55562145d740] consecutive B-frames:  2.7%  2.5%  0.7% 94.0%
[libx264 @ 0x55562145d740] mb I  I16..4: 33.8% 35.1% 31.2%
[libx264 @ 0x55562145d740] mb P  I16..4:  7.8% 13.7%  1.5%  P16..4: 20.5% 13.2% 10.7%  0.0%  0.0%    skip:32.7%
[libx264 @ 0x55562145d740] mb B  I16..4:  0.8%  0.9%  0.0%  B16..8: 14.8%  7.3%  2.2%  direct: 9.3%  skip:64.6%  L0:37.5% L1:39.0% BI:23.5%
[libx264 @ 0x55562145d740] 8x8 transform intra:56.4% inter:20.3%
[libx264 @ 0x55562145d740] coded y,uvDC,uvAC intra: 39.9% 51.6% 7.3% inter: 12.3% 11.3% 0.6%
[libx264 @ 0x55562145d740] i16 v,h,dc,p: 21% 31%  7% 40%
[libx264 @ 0x55562145d740] i8 v,h,dc,ddl,ddr,vr,hd,vl,hu: 15% 45% 12%  4%  6%  4%  8%  3%  4%
[libx264 @ 0x55562145d740] i4 v,h,dc,ddl,ddr,vr,hd,vl,hu: 24% 20% 13%  6%  9%  8%  8%  7%  7%
[libx264 @ 0x55562145d740] i8c dc,h,v,p: 43% 33%  9% 15%
[libx264 @ 0x55562145d740] Weighted P-Frames: Y:8.3% UV:0.0%
[libx264 @ 0x55562145d740] kb/s:3523.68
[aac @ 0x5556214540c0] Qavg: 6984.902
[AVIOContext @ 0x5556214184c0] Statistics: 32640459 bytes read, 844 seeks
[AVIOContext @ 0x5556214ff580] Statistics: 93903 bytes read, 0 seeks
[AVIOContext @ 0x5556214157c0] Statistics: 1530915 bytes read, 42 seeks
